<svg width="13" height="17" viewBox="0 0 13 17" fill="none" xmlns="http://www.w3.org/2000/svg">
<path d="M12.0788 4.23113C12.0183 4.00434 11.8954 3.76268 11.8045 3.55111C10.7167 0.936887 8.33993 0 6.42078 0C3.85165 0 1.02206 1.72271 0.644287 5.27362V5.99909C0.644287 6.02937 0.654722 6.30134 0.669543 6.43738C0.881315 8.12966 2.21665 9.92817 3.21393 11.6205C4.28686 13.4336 5.40018 15.2171 6.50319 17C7.18332 15.8365 7.86101 14.6578 8.52565 13.5245C8.70679 13.1919 8.91706 12.8595 9.0984 12.542C9.21926 12.3306 9.45017 12.1192 9.55566 11.9226C10.6285 9.95825 12.3555 7.97875 12.3555 6.02933V5.22849C12.3555 5.01715 12.0936 4.2767 12.0788 4.23113ZM6.46781 7.87298C5.71262 7.87298 4.88601 7.49537 4.478 6.45252C4.41721 6.28651 4.42211 5.95384 4.42211 5.92336V5.45492C4.42211 4.12548 5.55093 3.52091 6.53295 3.52091C7.74192 3.52091 8.67695 4.48815 8.67695 5.69713C8.67695 6.90606 7.67678 7.87298 6.46781 7.87298Z" fill="white"/>
</svg>
